<svg xmlns="http://www.w3.org/2000/svg" viewBox="0 0 128 128" width="64" height="64">
  <g opacity="0.8">
    <circle cx="24" cy="32" r="6" fill="#00FFFF"/>
    <circle cx="24" cy="64" r="6" fill="#00FFFF"/>
    <circle cx="24" cy="96" r="6" fill="#00FFFF"/>
    <circle cx="64" cy="24" r="6" fill="#39FF14"/>
    <circle cx="64" cy="52" r="6" fill="#39FF14"/>
    <circle cx="64" cy="80" r="6" fill="#39FF14"/>
    <circle cx="64" cy="104" r="6" fill="#39FF14"/>
    <circle cx="104" cy="48" r="6" fill="#F39C12"/>
    <circle cx="104" cy="80" r="6" fill="#F39C12"/>
  </g>
  <g stroke="#555" stroke-width="1" opacity="0.5">
    <line x1="30" y1="32" x2="58" y2="24"/><line x1="30" y1="32" x2="58" y2="52"/>
    <line x1="30" y1="32" x2="58" y2="80"/><line x1="30" y1="32" x2="58" y2="104"/>
    <line x1="30" y1="64" x2="58" y2="24"/><line x1="30" y1="64" x2="58" y2="52"/>
    <line x1="30" y1="64" x2="58" y2="80"/><line x1="30" y1="64" x2="58" y2="104"/>
    <line x1="30" y1="96" x2="58" y2="24"/><line x1="30" y1="96" x2="58" y2="52"/>
    <line x1="30" y1="96" x2="58" y2="80"/><line x1="30" y1="96" x2="58" y2="104"/>
    <line x1="70" y1="24" x2="98" y2="48"/><line x1="70" y1="24" x2="98" y2="80"/>
    <line x1="70" y1="52" x2="98" y2="48"/><line x1="70" y1="52" x2="98" y2="80"/>
    <line x1="70" y1="80" x2="98" y2="48"/><line x1="70" y1="80" x2="98" y2="80"/>
    <line x1="70" y1="104" x2="98" y2="48"/><line x1="70" y1="104" x2="98" y2="80"/>
  </g>
</svg>
